<svg width="248" height="147" viewBox="0 0 248 147" fill="none" xmlns="http://www.w3.org/2000/svg">
<path fill-rule="evenodd" clip-rule="evenodd" d="M172.131 93.3203C164.386 112.807 145.561 126.56 123.567 126.56C101.573 126.56 82.7477 112.807 75.0026 93.3203H79.8051C87.2856 110.27 104.066 122.08 123.567 122.08C143.068 122.08 159.848 110.27 167.328 93.3203H172.131ZM79.8051 53.6798C87.2856 36.73 104.066 24.9202 123.567 24.9202C143.068 24.9202 159.848 36.73 167.328 53.6798H172.131C164.386 34.1933 145.561 20.4396 123.567 20.4396C101.573 20.4396 82.7477 34.1933 75.0026 53.6798H79.8051Z" fill="#90E0EF"/>
<path fill-rule="evenodd" clip-rule="evenodd" d="M193.468 93.3202C184.927 124.285 156.866 147 123.567 147C90.2676 147 62.2066 124.285 53.6651 93.3202H60.0527C68.4064 120.812 93.6826 140.794 123.567 140.794C153.451 140.794 178.727 120.812 187.081 93.3202H193.468ZM60.0527 53.6798C68.4064 26.1883 93.6826 6.20649 123.567 6.20649C153.451 6.20649 178.727 26.1883 187.081 53.6798H193.468C184.927 22.7146 156.866 0 123.567 0C90.2676 0 62.2066 22.7146 53.6651 53.6798H60.0527Z" fill="#0077B6"/>
<path d="M235.398 92.7919C232.575 92.7919 230.055 92.2111 227.839 91.0496C225.177 89.6379 223.497 87.6007 222.8 84.9381C222.693 84.5271 222.746 84.1251 222.961 83.7319C223.193 83.3567 223.524 83.1154 223.953 83.0082C224.364 82.901 224.766 82.9546 225.159 83.169C225.534 83.4013 225.775 83.723 225.882 84.134C226.365 85.9925 227.616 87.4131 229.635 88.3959C231.315 89.2001 233.236 89.6021 235.398 89.6021C237.739 89.6021 239.749 88.8516 241.429 87.3506C243.109 85.8495 244.002 84.0178 244.11 81.8556C244.181 80.3009 243.645 78.925 242.501 77.7277C240.947 76.0658 238.472 75.2081 235.076 75.1545C234.63 75.1545 234.254 74.9936 233.951 74.672C233.647 74.3503 233.495 73.975 233.495 73.5462C233.513 73.0994 233.683 72.7242 234.004 72.4204C234.308 72.1166 234.683 71.9647 235.13 71.9647C239.419 72.0362 242.653 73.2335 244.833 75.5565C246.585 77.3971 247.398 79.5415 247.273 81.9896C247.147 85.0096 245.932 87.565 243.627 89.6557C241.34 91.7465 238.597 92.7919 235.398 92.7919ZM234.916 75.1545C230.627 75.1008 227.392 73.9125 225.212 71.5894C223.461 69.731 222.639 67.5777 222.746 65.1295C222.889 62.1095 224.113 59.5542 226.419 57.4634C228.706 55.3727 231.449 54.3273 234.648 54.3273C237.471 54.3273 239.991 54.917 242.206 56.0964C244.869 57.4902 246.549 59.5184 247.246 62.181C247.353 62.6099 247.299 63.012 247.085 63.3872C246.853 63.7625 246.522 64.0037 246.093 64.111C245.664 64.236 245.262 64.1824 244.887 63.9501C244.512 63.7357 244.27 63.414 244.163 62.9852C243.681 61.1267 242.43 59.715 240.411 58.75C238.731 57.928 236.81 57.517 234.648 57.517C232.307 57.517 230.296 58.2675 228.617 59.7686C226.937 61.2697 226.043 63.1102 225.936 65.2904C225.865 66.8272 226.401 68.1942 227.544 69.3915C229.099 71.0533 231.574 71.9111 234.969 71.9647C235.416 71.9826 235.791 72.1434 236.095 72.4472C236.399 72.7688 236.551 73.153 236.551 73.5998C236.533 74.0287 236.372 74.395 236.068 74.6988C235.747 75.0026 235.371 75.1545 234.942 75.1545H234.916Z" fill="black"/>
<path d="M213.391 54.8902C213.695 54.5864 214.062 54.4345 214.49 54.4345C214.919 54.4345 215.295 54.5864 215.616 54.8902C215.92 55.194 216.072 55.5692 216.072 56.016V79.6308C216.072 83.2584 214.785 86.3588 212.212 88.932C209.639 91.5053 206.538 92.7919 202.911 92.7919C199.283 92.7919 196.183 91.5053 193.61 88.932C191.036 86.3588 189.75 83.2584 189.75 79.6308V56.016C189.75 55.5692 189.902 55.194 190.205 54.8902C190.509 54.5864 190.884 54.4345 191.331 54.4345C191.76 54.4345 192.126 54.5864 192.43 54.8902C192.734 55.194 192.886 55.5692 192.886 56.016V79.6308C192.886 82.4007 193.869 84.7595 195.834 86.7073C197.782 88.6729 200.141 89.6558 202.911 89.6558C205.663 89.6558 208.022 88.6729 209.987 86.7073C211.953 84.7595 212.936 82.4007 212.936 79.6308V56.016C212.936 55.5692 213.088 55.194 213.391 54.8902Z" fill="black"/>
<path d="M160.345 75.2349V89.5753H171.791C174.024 89.5753 175.937 88.8695 177.527 87.4578C179.1 86.0461 179.886 84.3395 179.886 82.3381C179.886 80.3367 179.108 78.6569 177.554 77.2988C175.999 75.9229 174.096 75.2349 171.844 75.2349C171.773 75.2349 171.701 75.2349 171.63 75.2349C171.469 75.2349 171.29 75.2349 171.094 75.2349H160.345ZM160.345 57.5974V72.0451L171.094 72.0183C173.328 72.0183 175.231 71.2946 176.803 69.8471C178.376 68.3997 179.162 66.6574 179.162 64.6202C179.162 62.6367 178.385 60.9569 176.83 59.581C175.275 58.2229 173.363 57.5438 171.094 57.5438L160.345 57.5974ZM171.791 92.7919H158.737C158.29 92.7919 157.915 92.6311 157.611 92.3094C157.289 92.0056 157.129 91.6304 157.129 91.1836V55.9892C157.129 55.5424 157.281 55.1671 157.584 54.8634C157.906 54.5417 158.29 54.3809 158.737 54.3809L171.094 54.3273C174.257 54.3273 176.928 55.319 179.108 57.3026C181.289 59.304 182.379 61.7432 182.379 64.6202C182.379 66.4072 181.932 68.078 181.038 69.6327C180.181 71.1516 178.992 72.3936 177.473 73.3585C179.207 74.252 180.574 75.485 181.574 77.0576C182.593 78.6659 183.102 80.426 183.102 82.3381C183.102 85.2151 181.994 87.6722 179.779 89.7094C177.581 91.7644 174.918 92.7919 171.791 92.7919Z" fill="black"/>
<path d="M134.961 56.0696V91.1836C134.961 91.6304 134.8 92.0056 134.479 92.3094C134.175 92.6311 133.8 92.7919 133.353 92.7919C132.906 92.7919 132.531 92.6311 132.227 92.3094C131.905 92.0056 131.745 91.6304 131.745 91.1836V56.0696C131.745 55.6228 131.905 55.2476 132.227 54.9438C132.531 54.6221 132.906 54.4613 133.353 54.4613C133.8 54.4613 134.175 54.6221 134.479 54.9438C134.8 55.2476 134.961 55.6228 134.961 56.0696Z" fill="black"/>
<path d="M122.685 92.3094C122.381 92.6311 122.006 92.7919 121.559 92.7919C121.112 92.7919 120.728 92.6311 120.406 92.3094C120.103 92.0057 119.951 91.6304 119.951 91.1837V75.2081H98.0513V91.1837C98.0513 91.6304 97.8994 92.0057 97.5956 92.3094C97.2739 92.6311 96.8897 92.7919 96.443 92.7919C95.9962 92.7919 95.621 92.6311 95.3172 92.3094C94.9955 92.0057 94.8347 91.6304 94.8347 91.1837V55.9892C94.8347 55.5425 94.9955 55.1672 95.3172 54.8634C95.621 54.5417 95.9962 54.3809 96.443 54.3809C96.8897 54.3809 97.2739 54.5417 97.5956 54.8634C97.8994 55.1672 98.0513 55.5425 98.0513 55.9892V71.9647H119.951V55.9892C119.951 55.5425 120.103 55.1672 120.406 54.8634C120.728 54.5417 121.112 54.3809 121.559 54.3809C122.006 54.3809 122.381 54.5417 122.685 54.8634C123.006 55.1672 123.167 55.5425 123.167 55.9892V91.1837C123.167 91.6304 123.006 92.0057 122.685 92.3094Z" fill="black"/>
<path d="M67.9764 54.917C68.2981 54.5953 68.6823 54.4345 69.129 54.4345C69.5579 54.4345 69.9332 54.5953 70.2548 54.917C70.5586 55.2208 70.7105 55.596 70.7105 56.0428V89.6022H88.1067C88.5534 89.6022 88.9287 89.7541 89.2325 90.0578C89.5541 90.3795 89.715 90.7548 89.715 91.1836C89.715 91.6304 89.5541 92.0146 89.2325 92.3362C88.9287 92.64 88.5534 92.7919 88.1067 92.7919H69.129C68.6823 92.7919 68.2981 92.64 67.9764 92.3362C67.6726 92.0146 67.5208 91.6304 67.5208 91.1836V56.0428C67.5208 55.596 67.6726 55.2208 67.9764 54.917Z" fill="black"/>
<path d="M60.1763 92.7919H38.8934C38.4467 92.7919 38.0714 92.6311 37.7676 92.3094C37.446 92.0056 37.2852 91.6304 37.2852 91.1836V55.9088C37.2852 55.462 37.446 55.0867 37.7676 54.783C38.0893 54.4434 38.4646 54.2826 38.8934 54.3005L60.1763 54.3541C60.623 54.3541 60.9983 54.5149 61.3021 54.8366C61.6237 55.1582 61.7846 55.5335 61.7846 55.9624C61.7846 56.4091 61.6237 56.7933 61.3021 57.115C60.9983 57.4187 60.623 57.5706 60.1763 57.5706L40.5017 57.517V71.9379H55.2174C55.6642 71.9379 56.0395 72.0987 56.3432 72.4204C56.6649 72.7242 56.8257 73.0994 56.8257 73.5462C56.8257 73.9929 56.6649 74.3682 56.3432 74.672C56.0395 74.9936 55.6642 75.1545 55.2174 75.1545H40.5017V89.5753H60.1763C60.623 89.5753 60.9983 89.7362 61.3021 90.0578C61.6237 90.3616 61.7846 90.7369 61.7846 91.1836C61.7846 91.6304 61.6237 92.0056 61.3021 92.3094C60.9983 92.6311 60.623 92.7919 60.1763 92.7919Z" fill="black"/>
<path d="M3.21655 57.5441V89.5488L10.5074 89.4416C14.9212 89.4416 18.6917 87.8869 21.819 84.7776C24.9462 81.6504 26.5098 77.8888 26.5098 73.4928C26.5098 69.0969 24.9462 65.3353 21.819 62.2081C18.6917 59.0987 14.9302 57.5441 10.5342 57.5441H3.21655ZM1.63508 92.7921H1.60828C1.16153 92.7921 0.786269 92.6403 0.482483 92.3365C0.160828 92.0148 0 91.6306 0 91.1839V55.9358C0 55.4891 0.160828 55.1049 0.482483 54.7832C0.786269 54.4615 1.16153 54.3007 1.60828 54.3007H10.5342C15.8237 54.3007 20.3447 56.177 24.0973 59.9297C27.85 63.6823 29.7263 68.2034 29.7263 73.4928C29.7263 78.7823 27.85 83.3033 24.0973 87.056C20.3447 90.8086 15.8237 92.6849 10.5342 92.6849L1.63508 92.7921Z" fill="black"/>
</svg>
